{"title":"South.Park.S07E12.HDTV.XViD-FYI","uid":11398200,"size":185219399,"categoryP":"video","categoryS":"tv_shows","magnet":"?xt=urn:btih:b1fdbdb75793a61e6daeb8a834ec584ee3f0a3b0&amp;dn=South.Park.S07E12.HDTV.XViD-FYI&amp;tr=udp%3A%2F%2Ftracker.openbittorrent.com%3A80&amp;tr=udp%3A%2F%2Fopen.demonii.com%3A1337&amp;tr=udp%3A%2F%2Ftracker.coppersurfer.tk%3A6969&amp;tr=udp%3A%2F%2Fexodus.desync.com%3A6969","seeders":5,"leechers":0,"uploader":"TvTeam","files":4,"time":1415392218,"description":" &lt;a href=&quot;http://www.torrenting.com&quot; rel=&quot;nofollow&quot; target=&quot;_NEW&quot;&gt;http://www.torrenting.com&lt;/a&gt;\n\nSign up is OPEN - for time being. Come and have fun.\n\n\n\n-------------------------------------------------------------------------------------------------General\nComplete name                            : South.Park.S07E12.HDTV.XViD-FYI.avi\nFormat                                   : AVI\nFormat/Info                              : Audio Video Interleave\nFile size                                : 177 MiB\nDuration                                 : 21mn 23s\nOverall bit rate                         : 1 154 Kbps\nWriting application                      : VirtualDubMod 1.5.10.2 (build 2542/release)\nWriting library                          : VirtualDubMod build 2542/release\n\nVideo\nID                                       : 0\nFormat                                   : MPEG-4 Visual\nFormat profile                           : Advanced Simple@L5\nFormat settings, BVOP                    : 2\nFormat settings, QPel                    : No\nFormat settings, GMC                     : No warppoints\nFormat settings, Matrix                  : Default (H.263)\nMuxing mode                              : Packed bitstream\nCodec ID                                 : XVID\nCodec ID/Hint                            : XviD\nDuration                                 : 21mn 23s\nBit rate                                 : 1 017 Kbps\nWidth                                    : 656 pixels\nHeight                                   : 368 pixels\nDisplay aspect ratio                     : 16:9\nFrame rate                               : 23.976 fps\nColor space                              : YUV\nChroma subsampling                       : 4:2:0\nBit depth                                : 8 bits\nScan type                                : Progressive\nCompression mode                         : Lossy\nBits/(Pixel*Frame)                       : 0.176\nStream size                              : 156 MiB (88%)\nWriting library                          : XviD 66\n\nAudio\nID                                       : 1\nFormat                                   : MPEG Audio\nFormat version                           : Version 1\nFormat profile                           : Layer 3\nMode                                     : Joint stereo\nMode extension                           : MS Stereo\nCodec ID                                 : 55\nCodec ID/Hint                            : MP3\nDuration                                 : 21mn 23s\nBit rate mode                            : Constant\nBit rate                                 : 128 Kbps\nChannel(s)                               : 2 channels\nSampling rate                            : 44.1 KHz\nCompression mode                         : Lossy\nStream size                              : 19.6 MiB (11%)\nAlignment                                : Split accross interleaves\nInterleave, duration                     : 42 ms (1.00 video frame)\nInterleave, preload duration             : 500 ms\nWriting library                          : LAME3.94a\nEncoding settings                        : -m j -V 4 -q 2 -lowpass 17.5 -b 128","torrent":{"xt":"urn:btih:b1fdbdb75793a61e6daeb8a834ec584ee3f0a3b0","amp;dn":"South.Park.S07E12.HDTV.XViD-FYI","amp;tr":["udp%3A%2F%2Ftracker.openbittorrent.com%3A80","udp%3A%2F%2Fopen.demonii.com%3A1337","udp%3A%2F%2Ftracker.coppersurfer.tk%3A6969","udp%3A%2F%2Fexodus.desync.com%3A6969"],"infoHash":"b1fdbdb75793a61e6daeb8a834ec584ee3f0a3b0","infoHashBuffer":{"type":"Buffer","data":[177,253,189,183,87,147,166,30,109,174,184,168,52,236,88,78,227,240,163,176]},"announce":[],"urlList":[]}}